<svg id="Capa_1" data-name="Capa 1" xmlns="http://www.w3.org/2000/svg" viewBox="0 0 345.49 87.39"><defs><style>.cls-1{fill:#fff;}.cls-2{fill:#ffc700;}</style></defs><title>Logo</title><g id="Logo_Redify" data-name="Logo Redify"><path class="cls-1" d="M146.88,16.48H132.16l-7,49.73a4.13,4.13,0,1,0,8.17,1.15l2.13-15.21h9.23c2.58,5.69,5.27,11.2,8.19,16.59a4.18,4.18,0,1,0,7.34-4c-2.54-4.67-5-9.39-7.19-14.22,8.11-3,13.74-9.53,13.74-18.92,0-8.56-7.36-15.09-19.89-15.09M144.7,44.93h-8.18l2.93-21.25h5.18c9.16,0,13.51,3.68,13.51,9.08,0,8.11-5.93,12.16-13.44,12.16"/><path class="cls-1" d="M190.32,28.64c-12.39,0-22.9,11-22.9,25.9,0,10.58,7.21,17.27,17.71,17.27A29,29,0,0,0,197,69.46a3.35,3.35,0,0,0-2.33-6.26,25.1,25.1,0,0,1-8.09,1.4c-6.83,0-11-3.68-11-10.43V52.89c20.49,1.5,28.23-4.13,28.23-13.06,0-6.68-5.18-11.18-13.44-11.18M176.66,46.81C178.83,39.9,184,35.47,190,35.47c3.53,0,5.78,2,5.78,4.65,0,5.33-5.56,7.81-19.14,6.68"/><path class="cls-1" d="M240.72,14.6a4,4,0,0,0-4,3.49l-1.77,12.72a19.18,19.18,0,0,0-8.71-2.18c-13.36,0-21.92,11.94-21.92,27.17,0,10.21,5.4,16,12.91,16,5.78,0,10.81-3.9,13.66-8.71l-0.19,4a3.64,3.64,0,0,0,7.24.68l6.8-48.56a4,4,0,0,0-4-4.61m-8,31.75C231.34,57,225.26,64.3,219.33,64.3c-4.05,0-6.9-2.85-6.9-10.36,0-10.36,6.08-18.54,14.34-18.54A16.4,16.4,0,0,1,234,37.28Z"/><path class="cls-1" d="M254.93,29.54A4,4,0,0,0,251,33l-4.66,33.33a4,4,0,1,0,8,1.11l4.66-33.33a4,4,0,0,0-4-4.57"/><path class="cls-1" d="M257,13.7a5.56,5.56,0,1,0,5.56,5.56A5.56,5.56,0,0,0,257,13.7"/><path class="cls-1" d="M282.85,29.54h-5.34l0.23-1.73c0.68-4.73,2.48-7.13,6.46-7.13a23.22,23.22,0,0,1,2.67.18,3.36,3.36,0,0,0,1-6.63,27.21,27.21,0,0,0-5-.54c-7.21,0-12,4.73-13.06,12.31l-0.53,3.53-4.08.42a3.21,3.21,0,0,0,.33,6.41h2.86l-4.23,30a4,4,0,1,0,7.95,1.12l4.39-31.08h6.31a3.42,3.42,0,0,0,0-6.83"/><path class="cls-1" d="M319.65,29.54a4,4,0,0,0-4,3.47L314,45.38C312.7,55.67,306.69,62,300.16,62c-3.9,0-5.93-2.1-5.93-6.91a31.82,31.82,0,0,1,.3-3.6L297,34.12A4,4,0,1,0,289,33l-2.74,19.51a29.55,29.55,0,0,0-.3,4.36c0,7.73,5,12.61,12.76,12.61a15,15,0,0,0,13.06-7.58l-0.52,2.85c-1.13,7.43-4.58,11.41-12,11.41a28.61,28.61,0,0,1-8.1-1.18,3.54,3.54,0,1,0-1.79,6.85,45.33,45.33,0,0,0,10.42,1.24c11.94,0,18-7.13,19.52-18l4.32-30.94a4,4,0,0,0-4-4.57"/><path class="cls-1" d="M336,16.48a6.8,6.8,0,1,0,6.8,6.8,6.8,6.8,0,0,0-6.8-6.8m0,12.41a5.6,5.6,0,1,1,5.6-5.6,5.61,5.61,0,0,1-5.6,5.6"/><path class="cls-1" d="M338.62,22.13c0-1.41-1-2.24-2.79-2.24h-2.35v6.8h1.44V24.45h1l1.33,2.24h1.65l-1.61-2.5a2,2,0,0,0,1.32-2.06m-2.77,1.22h-0.93V21h0.63c1.09,0,1.61.39,1.61,1.14a1.11,1.11,0,0,1-1.3,1.22"/><path class="cls-2" d="M113.69,24a3.89,3.89,0,0,0-5.5,0L58.71,73.52,42.22,57a3.89,3.89,0,0,0-5.5,0h0a3.89,3.89,0,0,0,0,5.5L53.22,79l5.5,5.5,5.5-5.5,49.48-49.48a3.89,3.89,0,0,0,0-5.5h0Z"/><path class="cls-1" d="M96.21,20.86a3.9,3.9,0,0,0,4.75-.58h0a3.88,3.88,0,0,0-.75-6.09A81.68,81.68,0,0,0,4,24,3.9,3.9,0,0,0,3.8,29.6h0a3.87,3.87,0,0,0,5.34.14,73.9,73.9,0,0,1,87.06-8.89"/><path class="cls-1" d="M85,32.47a3.89,3.89,0,0,0,3.46-7A66.13,66.13,0,0,0,15,35a3.89,3.89,0,0,0-.17,5.67h0a3.88,3.88,0,0,0,5.32.16A58.35,58.35,0,0,1,85,32.47"/><path class="cls-1" d="M73.56,44.41a3.92,3.92,0,0,0,4.14-.88h0a3.89,3.89,0,0,0-1.4-6.4A50.56,50.56,0,0,0,26,46a3.87,3.87,0,0,0-.19,5.68h0a3.87,3.87,0,0,0,5.24.24,42.78,42.78,0,0,1,42.48-7.47"/></g></svg>