<svg id="Capa_1" data-name="Capa 1" xmlns="http://www.w3.org/2000/svg" viewBox="0 0 190.12 28.27"><defs><style>.cls-1{fill:#ffe7b0;stroke:#ffc700;stroke-miterlimit:10;}</style></defs><title>Stars</title><polygon class="cls-1" points="175.06 22.14 167.03 26.24 168.56 17.55 162.06 11.4 171.04 10.14 175.06 2.24 179.08 10.14 188.06 11.4 181.56 17.55 183.1 26.24 175.06 22.14"/><polygon class="cls-1" points="135.06 22.14 127.03 26.24 128.56 17.55 122.06 11.4 131.04 10.14 135.06 2.24 139.08 10.14 148.06 11.4 141.56 17.55 143.1 26.24 135.06 22.14"/><polygon class="cls-1" points="95.06 22.14 87.03 26.24 88.56 17.55 82.06 11.4 91.05 10.14 95.06 2.24 99.08 10.14 108.06 11.4 101.56 17.55 103.1 26.24 95.06 22.14"/><polygon class="cls-1" points="55.06 22.14 47.03 26.24 48.56 17.55 42.06 11.4 51.05 10.14 55.06 2.24 59.08 10.14 68.06 11.4 61.56 17.55 63.1 26.24 55.06 22.14"/><polygon class="cls-1" points="15.06 22.14 7.03 26.24 8.56 17.55 2.06 11.4 11.04 10.14 15.06 2.24 19.08 10.14 28.06 11.4 21.56 17.55 23.1 26.24 15.06 22.14"/></svg>