<svg id="Capa_1" data-name="Capa 1" xmlns="http://www.w3.org/2000/svg" viewBox="0 0 85.84 85.63"><defs><style>.cls-1{fill:#fb3449;stroke:#cc0014;stroke-miterlimit:10;fill-rule:evenodd;}</style></defs><title>Telephone</title><path class="cls-1" d="M2.8,16.09A21,21,0,0,1,6,8.63a24.55,24.55,0,0,1,4.49-4.79,6.32,6.32,0,0,1,8.86.23q6.29,6.15,12.44,12.44c2.71,2.77,2.57,6.64-.26,9.53-1.82,1.86-3.67,3.68-5.52,5.51a4.09,4.09,0,0,1-.67.46c6.88,13.41,15.11,21.62,28.33,28.39,1.06-1.07,2.14-2.16,3.23-3.24s2.26-2.33,3.48-3.38a6.37,6.37,0,0,1,8.92.26c4.17,4.09,8.26,8.25,12.4,12.37a7.86,7.86,0,0,1,1.94,3.67v1.75a12.2,12.2,0,0,1-1.29,3,22.91,22.91,0,0,1-10,7.48c-4.09,1.51-8.22,1.36-12.39.55-8.68-1.68-16.34-5.61-23.5-10.65a102.16,102.16,0,0,1-15.3-13.52A95.06,95.06,0,0,1,8,41.85a40.07,40.07,0,0,1-5.42-14.5c-0.15-1-.26-2-0.39-3v-4C2.36,19,2.51,17.51,2.8,16.09Z"/></svg>